<svg xmlns="http://www.w3.org/2000/svg" xmlns:xlink="http://www.w3.org/1999/xlink" width="552" height="712" viewBox="0 0 552 712"><defs><style>.a{clip-path:url(#b);}.b{fill:#cccccc;}.c{fill:#1e88e5;}.d{fill:#fff;}</style><clipPath id="b"><rect width="552" height="712"/></clipPath></defs><g id="a" class="a"><rect class="d" width="552" height="712"/><path class="b" d="M849.218,582.262s-7.056,106.181-50.893,191.774-131.512,133.71-124.456,150.6c3.444,8.244,70.984,7.33,139.493,0,24.534-2.625,43.421-14.774,67.9-15.384,35.016-.873,59.962,14.165,80.156,15.384,32.084,1.936,51.36-9.138,79.115-9.138,134.462,0,159.745,13.657,171.185,9.138,18.624-7.357-20.326-25.926-59.105-63.154-28.663-27.515-54.133-68.823-72.407-105.372-42.8-85.593-39.673-173.846-39.673-173.846Z" transform="translate(-673 -233)"/><path class="c" d="M849.887,537.973s3.807-25.554,21.261-27.539c7.331-.833,18.119,2.907,29.361,9.557,14.981,8.861,32.546,21.53,59.37,20.168,26.13-1.327,29.179-10.965,46.815-15.47s23.732-2.551,23.732-2.551,17.819,5.994,23.408,34.585,1.579,33.826-2.511,45.884-7.148-.445-13.85,2.349-3.349,8.608-7.047,10.61-4.667,2.116-9.881,0-13.85-13.486-15.835-6.277,8.04,127.487-9.253,126.759-29.3-128.581-40.8-131.092S944.567,632.262,934,631.675,918.329,599,912.375,602.608s-.2,54.551-24.663,54.186-8.99-64.108-16.564-70.75-20.694,13.121-27.9,6.48S849.887,537.973,849.887,537.973Z" transform="translate(-677 -234)"/><circle class="c" cx="28.5" cy="28.5" r="28.5" transform="translate(226 184)"/><circle class="c" cx="12.5" cy="12.5" r="12.5" transform="translate(313 173)"/><circle class="c" cx="20" cy="20" r="20" transform="translate(255 86)"/><circle class="c" cx="18.5" cy="18.5" r="18.5" transform="translate(326 68)"/><circle class="c" cx="18.5" cy="18.5" r="18.5" transform="translate(307)"/></g></svg>